<svg viewBox="-720 -413 1440 826" width="1440" height="826" style="background-color: rgb(255, 255, 255);" xmlns="http://www.w3.org/2000/svg"><path d="M165.02938320455033,-337.8845550811021L165.02938320455036,-12.255471993171628M165.02938320455036,-12.255471993171628L164.26930733638312,-12.080941393728503M165.02938320455036,-12.255471993171628L309.173505657567,228.99685331741952M164.2693073363831,-337.710024481659L164.26930733638312,-12.080941393728503M164.26930733638312,-12.080941393728503L308.41342978939974,229.17138391686268M156.41519003198826,-335.90654162074674L156.41519003198826,-10.277458532816226M156.41519003198826,-10.277458532816226L140.20023817775382,-6.554139078029575M156.41519003198826,-10.277458532816226L300.55931248500485,230.9748667777749M140.20023817775382,-332.18322216596005L140.20023817775382,-6.554139078029575M140.20023817775382,-6.554139078029575L284.34436063077044,234.69818623256162" style="fill:none;stroke:rgb(0,0,0);stroke-width:1;stroke-linecap:round"></path><path d="M165.02938320455033,-12.255471993171637L164.2693073363831,-12.080941393728512L164.2693073363831,-337.710024481659zM156.41519003198826,-10.277458532816228L140.20023817775382,-6.554139078029572L140.20023817775382,-332.18322216596005z" style="fill:rgb(238,238,238); fill-opacity: 0.24"></path><path d="M-166.36369531636655,-261.78921372389993L-166.36369531636652,63.83986936403055M-166.36369531636652,63.83986936403055L-182.57864717060096,67.5631888188172M-166.36369531636652,63.83986936403055L-22.219572863349928,305.0921946746217M-182.57864717060102,-258.0658942691132L-182.57864717060096,67.5631888188172M-182.57864717060096,67.5631888188172L-38.434524717584395,308.81551412940837" style="fill:none;stroke:rgb(0,0,0);stroke-width:1;stroke-linecap:round"></path><path d="M308.4134297893997,229.17138391686268L164.2693073363831,-12.080941393728512L165.02938320455033,-12.255471993171637z" style="fill:rgb(238,238,238); fill-opacity: 0.24"></path><path d="M-190.43276447499582,-256.262411408201L-190.43276447499582,69.36667167972949M-190.43276447499582,69.36667167972949L-191.19284034316303,69.54120227917262M-190.43276447499582,69.36667167972949L-46.288642021979214,310.6189969903207M-191.19284034316303,-256.0878808087578L-191.19284034316303,69.54120227917262M-191.19284034316303,69.54120227917262L-47.04871789014645,310.7935275897638" style="fill:none;stroke:rgb(0,0,0);stroke-width:1;stroke-linecap:round"></path><path d="M284.34436063077044,234.69818623256162L140.20023817775382,-6.554139078029572L156.41519003198826,-10.277458532816228z" style="fill:rgb(238,238,238); fill-opacity: 0.24"></path><path d="M168.38215148661314,-188.65938720541732L168.38215148661314,-25.844845661452105M168.38215148661314,-25.844845661452105L135.95224777814423,-18.398206751878803M168.38215148661314,-25.844845661452105L240.45421271312145,94.78131699384349M135.9522477781442,-181.21274829584402L135.95224777814423,-18.398206751878803M135.95224777814423,-18.398206751878803L208.02430900465254,102.22795590341678" style="fill:none;stroke:rgb(0,0,0);stroke-width:1;stroke-linecap:round"></path><path d="M165.02938320455033,-337.88455508110206L165.02938320455033,-12.255471993171637L164.2693073363831,-337.710024481659zM156.41519003198826,-335.90654162074674L156.41519003198826,-10.277458532816228L140.20023817775382,-332.18322216596005zM-166.36369531636652,63.83986936403056L-182.57864717060096,67.56318881881721L-182.57864717060102,-258.0658942691132zM309.1735056575669,228.99685331741955L165.02938320455033,-12.255471993171637L165.02938320455033,-337.88455508110206zM-190.4327644749958,69.36667167972949L-191.19284034316303,69.54120227917262L-191.19284034316308,-256.0878808087578zM300.55931248500485,230.9748667777749L156.41519003198826,-10.277458532816228L156.41519003198826,-335.90654162074674zM168.38215148661314,-25.844845661452105L135.9522477781442,-18.398206751878806L135.9522477781442,-181.21274829584402zM-38.434524717584395,308.81551412940837L-182.57864717060096,67.56318881881721L-166.36369531636652,63.83986936403056zM309.1735056575669,228.99685331741955L308.4134297893997,229.17138391686268L165.02938320455033,-12.255471993171637zM-47.04871789014646,310.7935275897638L-191.19284034316303,69.54120227917262L-190.4327644749958,69.36667167972949zM208.02430900465248,102.22795590341678L135.9522477781442,-18.398206751878806L168.38215148661314,-25.844845661452105zM300.55931248500485,230.9748667777749L284.34436063077044,234.69818623256162L156.41519003198826,-10.277458532816228z" style="fill:rgb(238,238,238); fill-opacity: 0.24"></path><path d="M-90.04364369024864,-129.31898339475507L-90.04364369024864,33.49555814921015M-90.04364369024864,33.49555814921015L-122.47354739871756,40.94219705878345M-90.04364369024864,33.49555814921015L-17.97158246374034,154.12172080450574M-125.1821087903909,73.47384665905074L-125.1821087903909,79.83378968811189M-125.1821087903909,79.83378968811189L-141.39706064462538,83.55710914289855M-125.1821087903909,79.83378968811189L-122.36679389873042,84.54574916683438M-125.18210596624287,73.47384551857616L-125.18210596624287,79.83378854763731M-125.18210596624287,79.83378854763731L-122.36679107458238,84.5457480263598M-125.18210596624287,79.83378854763731L-101.17892271209202,48.52716046709933" style="fill:none;stroke:rgb(0,0,0);stroke-width:1;stroke-linecap:round"></path><path d="M-122.36679389873042,84.5457491668344L-125.1821087903909,79.83378968811192L-125.1821087903909,73.47384665905076z" style="fill:rgb(153,221,255); fill-opacity: 0.4"></path><path d="M-125.1821087903909,73.47384665905076L-125.1821087903909,79.83378968811192L-122.36679389873042,84.5457491668344z" style="fill:rgb(255,187,187); fill-opacity: 0.4"></path><path d="M-141.39706064462538,77.1971661138374L-141.39706064462538,83.55710914289855M-141.39706064462538,83.55710914289855L-138.5817457529649,88.26906862162103" style="fill:none;stroke:rgb(0,0,0);stroke-width:1;stroke-linecap:round"></path><path d="M-125.1821087903909,79.83378968811192L-141.39706064462538,83.55710914289857L-141.39706064462538,77.19716611383741zM-125.1821087903909,73.47384665905076L-125.1821087903909,79.83378968811192L-141.39706064462538,77.19716611383741z" style="fill:rgb(153,221,255); fill-opacity: 0.4"></path><path d="M-125.1821087903909,73.47384665905074L-141.39706064462538,77.1971661138374M-125.1821087903909,73.47384665905074L-122.36679389873042,78.18580613777324M-125.18210596624287,73.47384551857616L-122.36679107458238,78.18580499729865M-125.18210596624287,73.47384551857616L-101.17892271209202,48.52716046709933" style="fill:none;stroke:rgb(0,0,0);stroke-width:1;stroke-linecap:round"></path><path d="M-138.5817457529649,88.26906862162105L-141.39706064462538,83.55710914289857L-125.1821087903909,79.83378968811192zM-122.36679389873042,84.5457491668344L-138.5817457529649,88.26906862162105L-125.1821087903909,79.83378968811192z" style="fill:rgb(153,221,255); fill-opacity: 0.4"></path><path d="M-138.5817457529649,88.26906862162103L-122.36679389873042,84.54574916683438M-122.36679389873042,78.18580613777324L-122.36679389873042,84.54574916683438M-122.36679107458238,84.5457480263598L-122.36679107458238,78.18580499729865M-122.36679107458238,84.5457480263598L-101.17892271209202,48.52716046709933M146.11614578037648,-108.54908938511655L146.11614578037648,-27.141818613133932M146.11614578037648,-27.141818613133932L81.2563383634386,-12.248540793987322M146.11614578037648,-27.141818613133932L182.1521763936306,33.171262714513865" style="fill:none;stroke:rgb(0,0,0);stroke-width:1;stroke-linecap:round"></path><path d="M-122.36679389873042,78.18580613777326L-122.36679389873042,84.5457491668344L-125.1821087903909,73.47384665905076z" style="fill:rgb(153,221,255); fill-opacity: 0.4"></path><path d="M-125.1821087903909,73.47384665905076L-122.36679389873042,84.5457491668344L-122.36679389873042,78.18580613777326z" style="fill:rgb(255,187,187); fill-opacity: 0.4"></path><path d="M-122.36679389873042,78.18580613777326L-125.1821087903909,73.47384665905076L-141.39706064462538,77.19716611383741zM-138.5817457529649,88.26906862162105L-122.36679389873042,84.5457491668344L-122.36679389873042,78.18580613777326z" style="fill:rgb(153,221,255); fill-opacity: 0.4"></path><path d="M-122.47354739871756,-121.87234448518176L-122.47354739871756,40.94219705878345M-122.47354739871756,40.94219705878345L-50.401486172209275,161.56835971407907M-141.39706064462538,77.1971661138374L-138.5817457529649,81.90912559255989" style="fill:none;stroke:rgb(0,0,0);stroke-width:1;stroke-linecap:round"></path><path d="M-141.39706064462538,77.19716611383741L-141.39706064462538,83.55710914289857L-138.5817457529649,81.9091255925599zM-141.39706064462538,83.55710914289857L-138.5817457529649,88.26906862162105L-138.5817457529649,81.9091255925599z" style="fill:rgb(153,221,255); fill-opacity: 0.4"></path><path d="M-138.5817457529649,81.90912559255989L-138.5817457529649,88.26906862162103M-138.5817457529649,81.90912559255989L-122.36679389873042,78.18580613777324M-122.36679107458238,78.18580499729865L-101.17892271209202,48.52716046709933" style="fill:none;stroke:rgb(0,0,0);stroke-width:1;stroke-linecap:round"></path><path d="M-138.5817457529649,81.9091255925599L-122.36679389873042,78.18580613777326L-141.39706064462538,77.19716611383741zM-138.5817457529649,81.9091255925599L-138.5817457529649,88.26906862162105L-122.36679389873042,78.18580613777326z" style="fill:rgb(153,221,255); fill-opacity: 0.4"></path><path d="M168.38215148661314,-188.65938720541732L168.38215148661314,-25.844845661452105L135.9522477781442,-181.21274829584402zM240.45421271312145,94.78131699384349L168.38215148661314,-25.844845661452105L168.38215148661314,-188.65938720541732z" style="fill:rgb(238,238,238); fill-opacity: 0.24"></path><path d="M81.2563383634386,-93.65581156596994L81.2563383634386,-12.248540793987322M81.2563383634386,-12.248540793987322L117.29236897669274,48.06454053366047" style="fill:none;stroke:rgb(0,0,0);stroke-width:1;stroke-linecap:round"></path><path d="M-125.1821087903909,79.83378968811192L-125.1821087903909,73.47384665905076L-101.17892541281462,48.527161333239455zM-122.36679389873042,84.5457491668344L-125.1821087903909,79.83378968811192L-101.17892541281462,48.527161333239455z" style="fill:rgb(255,187,187); fill-opacity: 0.4"></path><path d="M73.40222105904378,-91.85232870505766L73.4022210590438,-10.445057933075045M73.4022210590438,-10.445057933075045L8.542413642105934,4.448219886071563M73.4022210590438,-10.445057933075045L109.43825167229795,49.86802339457275M151.0983292492624,-65.11753233025122L148.73193333022772,-83.27773525856769M151.0983292492624,-58.75758920010152L148.73193333022772,-83.27773525856769M153.9136434249513,-54.0456309196923L148.73193333022772,-83.27773525856769M153.9136434249513,-60.405574049842016L148.73193333022772,-83.27773525856769" style="fill:none;stroke:rgb(0,0,0);stroke-width:1;stroke-linecap:round"></path><path d="M240.45421271312145,94.78131699384349L208.02430900465248,102.22795590341678L168.38215148661314,-25.844845661452105z" style="fill:rgb(238,238,238); fill-opacity: 0.24"></path><path d="M-125.1821087903909,73.47384665905076L-122.36679389873042,78.18580613777326L-101.17892541281462,48.527161333239455zM-122.36679389873042,78.18580613777326L-122.36679389873042,84.5457491668344L-101.17892541281462,48.527161333239455z" style="fill:rgb(255,187,187); fill-opacity: 0.4"></path><path d="M165.02938320455033,-337.8845550811021L164.2693073363831,-337.710024481659M165.02938320455033,-337.8845550811021L309.1735056575669,-96.63222977051092M164.2693073363831,-337.710024481659L308.4134297893997,-96.45769917106777M156.41519003198826,-335.90654162074674L140.20023817775382,-332.18322216596005M156.41519003198826,-335.90654162074674L300.55931248500485,-94.6542163101555M140.20023817775382,-332.18322216596005L284.34436063077044,-90.93089685536886" style="fill:none;stroke:rgb(0,0,0);stroke-width:1;stroke-linecap:round"></path><path d="M146.11614578037648,-27.141818613133925L81.2563383634386,-12.248540793987324L81.2563383634386,-93.65581156596994zM-166.36369531636655,-261.7892137238999L-166.36369531636652,63.83986936403056L-182.57864717060102,-258.0658942691132z" style="fill:rgb(238,238,238); fill-opacity: 0.24"></path><path d="M151.09833402714386,-58.75759101873659L151.09833402714386,-65.11753404779773L148.73193916333946,-83.27773511342279zM153.91364891880434,-54.0456315400141L151.09833402714386,-58.75759101873659L148.73193916333946,-83.27773511342279z" style="fill:rgb(255,187,187); fill-opacity: 0.4"></path><path d="M117.29236897669276,48.06454053366047L81.2563383634386,-12.248540793987324L146.11614578037648,-27.141818613133925z" style="fill:rgb(238,238,238); fill-opacity: 0.24"></path><path d="M8.542413642105926,-76.95905088591104L8.542413642105934,4.448219886071563M8.542413642105934,4.448219886071563L44.57844425536008,64.76130121371935" style="fill:none;stroke:rgb(0,0,0);stroke-width:1;stroke-linecap:round"></path><path d="M151.09833402714386,-65.11753404779773L153.91364891880434,-60.40557456907525L148.73193916333946,-83.27773511342279zM153.91364891880434,-60.40557456907525L153.91364891880434,-54.0456315400141L148.73193916333946,-83.27773511342279z" style="fill:rgb(255,187,187); fill-opacity: 0.4"></path><path d="M164.2693073363831,-337.710024481659L164.2693073363831,-12.080941393728512L308.4134297893997,-96.45769917106779z" style="fill:rgb(238,238,238); fill-opacity: 0.24"></path><path d="M151.09833402714386,-65.11753404779772L151.09833402714386,-58.757591018736576M151.09833402714386,-58.757591018736576L86.238526610206,-43.86431319958998M151.09833402714386,-58.757591018736576L153.91364891880434,-54.0456315400141M151.0983292492624,-65.11753233025122L151.0983292492624,-58.75758920010152M151.0983292492624,-58.75758920010152L153.9136434249513,-54.0456309196923" style="fill:none;stroke:rgb(0,0,0);stroke-width:1;stroke-linecap:round"></path><path d="M-90.04364369024863,33.495558149210154L-122.47354739871754,40.94219705878346L-122.47354739871756,-121.87234448518176z" style="fill:rgb(238,238,238); fill-opacity: 0.24"></path><path d="M0.6882963377111083,-75.15556802499876L0.6882963377111133,6.251702746983849M0.6882963377111133,6.251702746983849L-64.17151107922675,21.144980566130457M0.6882963377111133,6.251702746983849L36.72432695096526,66.56478407463165" style="fill:none;stroke:rgb(0,0,0);stroke-width:1;stroke-linecap:round"></path><path d="M-190.43276447499582,-256.26241140820093L-190.4327644749958,69.36667167972949L-191.19284034316308,-256.0878808087578z" style="fill:rgb(238,238,238); fill-opacity: 0.24"></path><path d="M153.91364891880434,-54.0456315400141L151.09833402714386,-58.75759101873659L151.09833402714386,-65.11753404779773z" style="fill:rgb(153,221,255); fill-opacity: 0.4"></path><path d="M151.09833402714386,-65.11753404779773L151.09833402714386,-58.75759101873659L153.91364891880434,-54.0456315400141z" style="fill:rgb(255,187,187); fill-opacity: 0.4"></path><path d="M168.38215148661314,-188.65938720541732L135.9522477781442,-181.21274829584402M168.38215148661314,-188.65938720541732L240.45421271312145,-68.03322455012174" style="fill:none;stroke:rgb(0,0,0);stroke-width:1;stroke-linecap:round"></path><path d="M182.1521763936306,33.171262714513865L146.11614578037648,-27.141818613133925L146.11614578037646,-108.54908938511655z" style="fill:rgb(238,238,238); fill-opacity: 0.24"></path><path d="M151.09833402714386,-65.11753404779772L86.238526610206,-50.224256228651114M151.09833402714386,-65.11753404779772L153.91364891880434,-60.405574569075235M151.0983292492624,-65.11753233025122L153.9136434249513,-60.405574049842016M89.05384150186649,-39.152353720867495L153.91364891880434,-54.0456315400141M153.91364891880434,-60.405574569075235L153.91364891880434,-54.0456315400141M153.9136434249513,-54.0456309196923L153.9136434249513,-60.405574049842016" style="fill:none;stroke:rgb(0,0,0);stroke-width:1;stroke-linecap:round"></path><path d="M140.20023817775382,-332.18322216596005L140.20023817775382,-6.554139078029572L284.34436063077044,-90.93089685536886zM146.11614578037646,-108.54908938511655L146.11614578037648,-27.141818613133925L81.2563383634386,-93.65581156596994z" style="fill:rgb(238,238,238); fill-opacity: 0.24"></path><path d="M153.91364891880434,-60.40557456907525L153.91364891880434,-54.0456315400141L151.09833402714386,-65.11753404779773z" style="fill:rgb(153,221,255); fill-opacity: 0.4"></path><path d="M151.09833402714386,-65.11753404779773L153.91364891880434,-54.0456315400141L153.91364891880434,-60.40557456907525z" style="fill:rgb(255,187,187); fill-opacity: 0.4"></path><path d="M-50.40148617220926,161.56835971407907L-122.47354739871754,40.94219705878346L-90.04364369024863,33.495558149210154zM-22.21957286334994,305.09219467462174L-166.36369531636652,63.83986936403056L-166.36369531636655,-261.7892137238999z" style="fill:rgb(238,238,238); fill-opacity: 0.24"></path><path d="M151.09833402714386,-65.11753404779773L151.09833402714386,-58.75759101873659L86.23852661020598,-50.22425622865113zM153.91364891880434,-54.0456315400141L89.05384150186647,-39.1523537208675L151.09833402714386,-58.75759101873659z" style="fill:rgb(153,221,255); fill-opacity: 0.4"></path><path d="M89.05384150186649,-45.51229674992864L153.91364891880434,-60.405574569075235" style="fill:none;stroke:rgb(0,0,0);stroke-width:1;stroke-linecap:round"></path><path d="M73.40222105904378,-10.445057933075045L8.542413642105936,4.448219886071565L8.542413642105931,-76.95905088591104z" style="fill:rgb(238,238,238); fill-opacity: 0.24"></path><path d="M153.91364891880434,-60.40557456907525L151.09833402714386,-65.11753404779773L86.23852661020598,-50.22425622865113z" style="fill:rgb(153,221,255); fill-opacity: 0.4"></path><path d="M135.9522477781442,-181.21274829584402L208.02430900465248,-60.58658564054845" style="fill:none;stroke:rgb(0,0,0);stroke-width:1;stroke-linecap:round"></path><path d="M89.05384150186647,-39.1523537208675L153.91364891880434,-54.0456315400141L153.91364891880434,-60.40557456907525zM151.09833402714386,-58.75759101873659L86.23852661020598,-43.864313199589986L86.23852661020598,-50.22425622865113zM89.05384150186647,-39.1523537208675L86.23852661020598,-43.864313199589986L151.09833402714386,-58.75759101873659z" style="fill:rgb(153,221,255); fill-opacity: 0.4"></path><path d="M182.1521763936306,33.171262714513865L117.29236897669276,48.06454053366047L146.11614578037648,-27.141818613133925zM164.2693073363831,-12.080941393728512L308.4134297893997,229.17138391686268L308.4134297893997,-96.45769917106779zM-46.288642021979214,310.61899699032074L-190.4327644749958,69.36667167972949L-190.43276447499582,-256.26241140820093zM44.57844425536009,64.76130121371936L8.542413642105936,4.448219886071565L73.40222105904378,-10.445057933075045z" style="fill:rgb(238,238,238); fill-opacity: 0.24"></path><path d="M86.238526610206,-50.224256228651114L86.238526610206,-43.86431319958998M86.238526610206,-43.86431319958998L89.05384150186649,-39.152353720867495M-64.17151107922675,-60.26229020585215L-64.17151107922675,21.144980566130457M-64.17151107922675,21.144980566130457L-28.1354804659726,81.45806189377825" style="fill:none;stroke:rgb(0,0,0);stroke-width:1;stroke-linecap:round"></path><path d="M89.05384150186647,-45.51229674992864L153.91364891880434,-60.40557456907525L86.23852661020598,-50.22425622865113zM89.05384150186647,-45.51229674992864L89.05384150186647,-39.1523537208675L153.91364891880434,-60.40557456907525z" style="fill:rgb(153,221,255); fill-opacity: 0.4"></path><path d="M135.9522477781442,-181.21274829584402L135.9522477781442,-18.398206751878806L208.02430900465248,-60.58658564054845z" style="fill:rgb(238,238,238); fill-opacity: 0.24"></path><path d="M146.11614578037648,-108.54908938511655L81.2563383634386,-93.65581156596994M146.11614578037648,-108.54908938511655L182.1521763936306,-48.23600805746875" style="fill:none;stroke:rgb(0,0,0);stroke-width:1;stroke-linecap:round"></path><path d="M140.20023817775382,-6.554139078029572L284.34436063077044,234.69818623256162L284.34436063077044,-90.93089685536886z" style="fill:rgb(238,238,238); fill-opacity: 0.24"></path><path d="M86.238526610206,-50.224256228651114L89.05384150186649,-45.51229674992864" style="fill:none;stroke:rgb(0,0,0);stroke-width:1;stroke-linecap:round"></path><path d="M86.23852661020598,-50.22425622865113L86.23852661020598,-43.864313199589986L89.05384150186647,-45.51229674992864zM86.23852661020598,-43.864313199589986L89.05384150186647,-39.1523537208675L89.05384150186647,-45.51229674992864z" style="fill:rgb(153,221,255); fill-opacity: 0.4"></path><path d="M89.05384150186649,-45.51229674992864L89.05384150186649,-39.152353720867495" style="fill:none;stroke:rgb(0,0,0);stroke-width:1;stroke-linecap:round"></path><path d="M109.43825167229795,49.86802339457275L73.40222105904378,-10.445057933075045L73.40222105904378,-91.85232870505766zM-22.21957286334994,305.09219467462174L-38.434524717584395,308.81551412940837L-166.36369531636652,63.83986936403056zM73.40222105904378,-91.85232870505766L73.40222105904378,-10.445057933075045L8.542413642105931,-76.95905088591104z" style="fill:rgb(238,238,238); fill-opacity: 0.24"></path><path d="M208.02430900465254,102.22795590341678L240.45421271312145,94.78131699384349M240.45421271312145,-68.03322455012174L240.45421271312145,94.78131699384349" style="fill:none;stroke:rgb(0,0,0);stroke-width:1;stroke-linecap:round"></path><path d="M135.9522477781442,-18.398206751878806L208.02430900465248,102.22795590341678L208.02430900465248,-60.58658564054845z" style="fill:rgb(238,238,238); fill-opacity: 0.24"></path><path d="M308.41342978939974,229.17138391686268L309.173505657567,228.99685331741952M309.1735056575669,-96.63222977051092L309.173505657567,228.99685331741952M308.4134297893997,-96.45769917106777L308.41342978939974,229.17138391686268" style="fill:none;stroke:rgb(0,0,0);stroke-width:1;stroke-linecap:round"></path><path d="M-46.288642021979214,310.61899699032074L-47.04871789014646,310.7935275897638L-190.4327644749958,69.36667167972949z" style="fill:rgb(238,238,238); fill-opacity: 0.24"></path><path d="M284.34436063077044,234.69818623256162L300.55931248500485,230.9748667777749M300.55931248500485,-94.6542163101555L300.55931248500485,230.9748667777749" style="fill:none;stroke:rgb(0,0,0);stroke-width:1;stroke-linecap:round"></path><path d="M0.6882963377111141,6.25170274698385L-64.17151107922675,21.144980566130457L-64.17151107922675,-60.26229020585215z" style="fill:rgb(238,238,238); fill-opacity: 0.24"></path><path d="M117.29236897669274,48.06454053366047L182.1521763936306,33.171262714513865M182.1521763936306,-48.23600805746875L182.1521763936306,33.171262714513865" style="fill:none;stroke:rgb(0,0,0);stroke-width:1;stroke-linecap:round"></path><path d="M109.43825167229795,49.86802339457275L44.57844425536009,64.76130121371936L73.40222105904378,-10.445057933075045z" style="fill:rgb(238,238,238); fill-opacity: 0.24"></path><path d="M212.9768830629628,-161.93145903089183L212.9768830629628,-155.5715160018307M212.9768830629628,-155.5715160018307L196.76193120872833,-151.848196547044M212.9768830629628,-155.5715160018307L215.79219795462328,-150.85955652310818M212.97687837243672,-161.93145903317458L212.97687837243672,-155.57151600411345M212.97687837243672,-155.57151600411345L215.7921932640972,-150.85955652539096M212.97687837243672,-155.57151600411345L222.23865312266176,-158.19899064019503M208.02430900465248,-60.58658564054845L208.02430900465254,102.22795590341678" style="fill:none;stroke:rgb(0,0,0);stroke-width:1;stroke-linecap:round"></path><path d="M-28.13548046597259,81.45806189377825L-64.17151107922675,21.144980566130457L0.6882963377111141,6.25170274698385z" style="fill:rgb(238,238,238); fill-opacity: 0.24"></path><path d="M284.34436063077044,-90.93089685536886L284.34436063077044,234.69818623256162" style="fill:none;stroke:rgb(0,0,0);stroke-width:1;stroke-linecap:round"></path><path d="M-90.04364369024864,-129.31898339475507L-90.04364369024863,33.495558149210154L-122.47354739871756,-121.87234448518176z" style="fill:rgb(238,238,238); fill-opacity: 0.24"></path><path d="M212.9768830629628,-155.5715160018307L212.9768830629628,-161.93145903089186L222.23865781318784,-158.1989906379123zM215.79219795462328,-150.85955652310818L212.9768830629628,-155.5715160018307L222.23865781318784,-158.1989906379123z" style="fill:rgb(255,187,187); fill-opacity: 0.4"></path><path d="M212.97687837243672,-161.93145903317458L222.23865312266176,-158.19899064019503M215.7921932640972,-150.85955652539096L222.23865312266176,-158.19899064019503M215.7921932640972,-157.21949955445209L222.23865312266176,-158.19899064019503M81.2563383634386,-93.65581156596994L117.29236897669274,-33.34273023832214" style="fill:none;stroke:rgb(0,0,0);stroke-width:1;stroke-linecap:round"></path><path d="M215.79219795462328,-150.85955652310818L212.9768830629628,-155.5715160018307L212.9768830629628,-161.93145903089186z" style="fill:rgb(153,221,255); fill-opacity: 0.4"></path><path d="M212.9768830629628,-161.93145903089186L212.9768830629628,-155.5715160018307L215.79219795462328,-150.85955652310818z" style="fill:rgb(255,187,187); fill-opacity: 0.4"></path><path d="M196.76193120872833,-158.20813957610517L196.76193120872833,-151.848196547044M196.76193120872833,-151.848196547044L199.57724610038883,-147.13623706832155" style="fill:none;stroke:rgb(0,0,0);stroke-width:1;stroke-linecap:round"></path><path d="M212.9768830629628,-155.5715160018307L196.76193120872833,-151.84819654704404L196.76193120872833,-158.2081395761052zM212.9768830629628,-161.93145903089186L212.9768830629628,-155.5715160018307L196.76193120872833,-158.2081395761052z" style="fill:rgb(153,221,255); fill-opacity: 0.4"></path><path d="M212.9768830629628,-161.93145903089183L196.76193120872833,-158.20813957610517M212.9768830629628,-161.93145903089183L215.79219795462328,-157.21949955216937M212.97687837243672,-161.93145903317458L215.7921932640972,-157.21949955445209" style="fill:none;stroke:rgb(0,0,0);stroke-width:1;stroke-linecap:round"></path><path d="M199.57724610038883,-147.13623706832155L196.76193120872833,-151.84819654704404L212.9768830629628,-155.5715160018307zM215.79219795462328,-150.85955652310818L199.57724610038883,-147.13623706832155L212.9768830629628,-155.5715160018307z" style="fill:rgb(153,221,255); fill-opacity: 0.4"></path><path d="M73.40222105904378,-91.85232870505766L8.542413642105926,-76.95905088591104M73.40222105904378,-91.85232870505766L109.43825167229792,-31.539247377409865M199.57724610038883,-147.13623706832155L215.79219795462328,-150.85955652310818M215.79219795462328,-157.21949955216937L215.79219795462328,-150.85955652310818M215.7921932640972,-150.85955652539096L215.7921932640972,-157.21949955445209" style="fill:none;stroke:rgb(0,0,0);stroke-width:1;stroke-linecap:round"></path><path d="M212.9768830629628,-161.93145903089186L215.79219795462328,-157.21949955216937L222.23865781318784,-158.1989906379123zM215.79219795462328,-157.21949955216937L215.79219795462328,-150.85955652310818L222.23865781318784,-158.1989906379123z" style="fill:rgb(255,187,187); fill-opacity: 0.4"></path><path d="M-17.971582463740344,154.12172080450574L-90.04364369024863,33.495558149210154L-90.04364369024864,-129.31898339475507z" style="fill:rgb(238,238,238); fill-opacity: 0.24"></path><path d="M215.79219795462328,-157.21949955216937L215.79219795462328,-150.85955652310818L212.9768830629628,-161.93145903089186z" style="fill:rgb(153,221,255); fill-opacity: 0.4"></path><path d="M212.9768830629628,-161.93145903089186L215.79219795462328,-150.85955652310818L215.79219795462328,-157.21949955216937z" style="fill:rgb(255,187,187); fill-opacity: 0.4"></path><path d="M81.2563383634386,-93.65581156596994L81.2563383634386,-12.248540793987324L117.29236897669274,-33.34273023832214z" style="fill:rgb(238,238,238); fill-opacity: 0.24"></path><path d="M213.51610193763094,-50.76417039942069L213.51610193763094,-44.40422737035955M213.51610193763094,-44.40422737035955L181.086198229162,-36.95758846078625M213.51610193763094,-44.40422737035955L216.3314168292914,-39.69226789163707M213.5160968159189,-50.76416879762073L213.5160968159189,-44.404225768559584M213.5160968159189,-44.404225768559584L216.33141170757938,-39.69226628983711M213.5160968159189,-44.404225768559584L233.28344888262018,-45.32088402619456" style="fill:none;stroke:rgb(0,0,0);stroke-width:1;stroke-linecap:round"></path><path d="M215.79219795462328,-157.21949955216937L212.9768830629628,-161.93145903089186L196.76193120872833,-158.2081395761052zM199.57724610038883,-147.13623706832155L215.79219795462328,-150.85955652310818L215.79219795462328,-157.21949955216937z" style="fill:rgb(153,221,255); fill-opacity: 0.4"></path><path d="M36.72432695096526,66.56478407463165L0.6882963377111141,6.25170274698385L0.6882963377111091,-75.15556802499876z" style="fill:rgb(238,238,238); fill-opacity: 0.24"></path><path d="M196.76193120872833,-158.20813957610517L199.57724610038883,-153.49618009738268" style="fill:none;stroke:rgb(0,0,0);stroke-width:1;stroke-linecap:round"></path><path d="M196.76193120872833,-158.2081395761052L196.76193120872833,-151.84819654704404L199.57724610038883,-153.49618009738268zM196.76193120872833,-151.84819654704404L199.57724610038883,-147.13623706832155L199.57724610038883,-153.49618009738268z" style="fill:rgb(153,221,255); fill-opacity: 0.4"></path><path d="M199.57724610038883,-153.49618009738268L199.57724610038883,-147.13623706832155M199.57724610038883,-153.49618009738268L215.79219795462328,-157.21949955216937" style="fill:none;stroke:rgb(0,0,0);stroke-width:1;stroke-linecap:round"></path><path d="M81.2563383634386,-12.248540793987324L117.29236897669276,48.06454053366047L117.29236897669274,-33.34273023832214zM0.6882963377111091,-75.15556802499876L0.6882963377111141,6.25170274698385L-64.17151107922675,-60.26229020585215z" style="fill:rgb(238,238,238); fill-opacity: 0.24"></path><path d="M216.3314168292914,-39.692267891637066L213.51610193763094,-44.40422737035955L213.51610193763094,-50.76417039942069z" style="fill:rgb(153,221,255); fill-opacity: 0.4"></path><path d="M213.51610193763094,-50.76417039942069L213.51610193763094,-44.40422737035955L216.3314168292914,-39.692267891637066z" style="fill:rgb(255,187,187); fill-opacity: 0.4"></path><path d="M199.57724610038883,-153.49618009738268L215.79219795462328,-157.21949955216937L196.76193120872833,-158.2081395761052zM199.57724610038883,-153.49618009738268L199.57724610038883,-147.13623706832155L215.79219795462328,-157.21949955216937z" style="fill:rgb(153,221,255); fill-opacity: 0.4"></path><path d="M213.51610193763094,-50.76417039942069L181.086198229162,-43.31753148984739M213.51610193763094,-50.76417039942069L216.3314168292914,-46.05221092069821M213.5160968159189,-50.76416879762073L216.33141170757938,-46.05220931889824M213.5160968159189,-50.76416879762073L233.28344888262018,-45.32088402619456" style="fill:none;stroke:rgb(0,0,0);stroke-width:1;stroke-linecap:round"></path><path d="M182.1521763936306,-48.236008057468744L182.1521763936306,33.171262714513865L146.11614578037646,-108.54908938511655z" style="fill:rgb(238,238,238); fill-opacity: 0.24"></path><path d="M183.9015131208225,-32.245628982063764L216.3314168292914,-39.69226789163707M216.3314168292914,-46.05221092069821L216.3314168292914,-39.69226789163707M216.33141170757938,-39.69226628983711L216.33141170757938,-46.05220931889824M216.33141170757938,-39.69226628983711L233.28344888262018,-45.32088402619456" style="fill:none;stroke:rgb(0,0,0);stroke-width:1;stroke-linecap:round"></path><path d="M213.51610193763094,-50.76417039942069L213.51610193763094,-44.40422737035955L181.08619822916197,-43.3175314898474zM216.3314168292914,-39.692267891637066L183.90151312082244,-32.245628982063764L213.51610193763094,-44.40422737035955z" style="fill:rgb(153,221,255); fill-opacity: 0.4"></path><path d="M117.29236897669274,-33.34273023832214L117.29236897669274,48.06454053366047" style="fill:none;stroke:rgb(0,0,0);stroke-width:1;stroke-linecap:round"></path><path d="M216.3314168292914,-46.05221092069821L216.3314168292914,-39.692267891637066L213.51610193763094,-50.76417039942069z" style="fill:rgb(153,221,255); fill-opacity: 0.4"></path><path d="M213.51610193763094,-50.76417039942069L216.3314168292914,-39.692267891637066L216.3314168292914,-46.05221092069821z" style="fill:rgb(255,187,187); fill-opacity: 0.4"></path><path d="M213.51610193763094,-44.40422737035955L181.08619822916197,-36.95758846078625L181.08619822916197,-43.3175314898474z" style="fill:rgb(153,221,255); fill-opacity: 0.4"></path><path d="M182.1521763936306,-48.236008057468744L146.11614578037646,-108.54908938511655L81.2563383634386,-93.65581156596994z" style="fill:rgb(238,238,238); fill-opacity: 0.24"></path><path d="M183.90151312082244,-32.245628982063764L181.08619822916197,-36.95758846078625L213.51610193763094,-44.40422737035955z" style="fill:rgb(153,221,255); fill-opacity: 0.4"></path><path d="M181.086198229162,-43.31753148984739L181.086198229162,-36.95758846078625M181.086198229162,-36.95758846078625L183.9015131208225,-32.245628982063764M44.57844425536008,64.76130121371935L109.43825167229795,49.86802339457275M109.43825167229792,-31.539247377409865L109.43825167229795,49.86802339457275" style="fill:none;stroke:rgb(0,0,0);stroke-width:1;stroke-linecap:round"></path><path d="M-17.971582463740344,154.12172080450574L-50.40148617220926,161.56835971407907L-90.04364369024863,33.495558149210154z" style="fill:rgb(238,238,238); fill-opacity: 0.24"></path><path d="M216.3314168292914,-46.05221092069821L213.51610193763094,-50.76417039942069L181.08619822916197,-43.3175314898474zM183.90151312082244,-32.245628982063764L216.3314168292914,-39.692267891637066L216.3314168292914,-46.05221092069821z" style="fill:rgb(153,221,255); fill-opacity: 0.4"></path><path d="M183.9015131208225,-38.605572011124906L216.3314168292914,-46.05221092069821M216.33141170757938,-46.05220931889824L233.28344888262018,-45.32088402619456" style="fill:none;stroke:rgb(0,0,0);stroke-width:1;stroke-linecap:round"></path><path d="M36.72432695096526,66.56478407463165L-28.13548046597259,81.45806189377825L0.6882963377111141,6.25170274698385zM240.4542127131214,-68.03322455012174L168.38215148661314,-188.65938720541732L135.9522477781442,-181.21274829584402z" style="fill:rgb(238,238,238); fill-opacity: 0.24"></path><path d="M213.51610193763094,-44.40422737035955L213.51610193763094,-50.76417039942069L233.28345397144986,-45.32088604618312z" style="fill:rgb(255,187,187); fill-opacity: 0.4"></path><path d="M181.086198229162,-43.31753148984739L183.9015131208225,-38.605572011124906" style="fill:none;stroke:rgb(0,0,0);stroke-width:1;stroke-linecap:round"></path><path d="M216.3314168292914,-39.692267891637066L213.51610193763094,-44.40422737035955L233.28345397144986,-45.32088604618312z" style="fill:rgb(255,187,187); fill-opacity: 0.4"></path><path d="M181.08619822916197,-43.3175314898474L181.08619822916197,-36.95758846078625L183.90151312082244,-38.605572011124906zM181.08619822916197,-36.95758846078625L183.90151312082244,-32.245628982063764L183.90151312082244,-38.605572011124906zM183.90151312082244,-38.605572011124906L216.3314168292914,-46.05221092069821L181.08619822916197,-43.3175314898474z" style="fill:rgb(153,221,255); fill-opacity: 0.4"></path><path d="M183.9015131208225,-38.605572011124906L183.9015131208225,-32.245628982063764" style="fill:none;stroke:rgb(0,0,0);stroke-width:1;stroke-linecap:round"></path><path d="M183.90151312082244,-38.605572011124906L183.90151312082244,-32.245628982063764L216.3314168292914,-46.05221092069821z" style="fill:rgb(153,221,255); fill-opacity: 0.4"></path><path d="M6.188584838937056,-53.70257403195305L6.188584838937056,-47.34263100289191M6.188584838937056,-47.34263100289191L-58.671222578000794,-32.44935318374531M6.188584838937056,-47.34263100289191L9.00389973059754,-42.63067152416943M6.18858556728788,-53.70257473942717L6.18858556728788,-47.342631710366035M6.18858556728788,-47.342631710366035L9.00390045894836,-42.630672231643544M6.18858556728788,-47.342631710366035L15.450360317512937,-49.97010634644765" style="fill:none;stroke:rgb(0,0,0);stroke-width:1;stroke-linecap:round"></path><path d="M117.29236897669276,48.06454053366047L182.1521763936306,33.171262714513865L182.1521763936306,-48.236008057468744z" style="fill:rgb(238,238,238); fill-opacity: 0.24"></path><path d="M8.542413642105926,-76.95905088591104L44.578444255360075,-16.645969558263257" style="fill:none;stroke:rgb(0,0,0);stroke-width:1;stroke-linecap:round"></path><path d="M240.4542127131214,-68.03322455012174L240.45421271312145,94.78131699384349L168.38215148661314,-188.65938720541732z" style="fill:rgb(238,238,238); fill-opacity: 0.24"></path><path d="M213.51610193763094,-50.76417039942069L216.3314168292914,-46.05221092069821L233.28345397144986,-45.32088604618312zM216.3314168292914,-46.05221092069821L216.3314168292914,-39.692267891637066L233.28345397144986,-45.32088604618312zM6.18858483893706,-47.34263100289191L6.18858483893706,-53.70257403195305L15.450359589162117,-49.97010563897353z" style="fill:rgb(255,187,187); fill-opacity: 0.4"></path><path d="M0.6882963377111083,-75.15556802499876L-64.17151107922675,-60.26229020585215M0.6882963377111083,-75.15556802499876L36.724326950965256,-14.84248669735097" style="fill:none;stroke:rgb(0,0,0);stroke-width:1;stroke-linecap:round"></path><path d="M9.003899730597537,-42.63067152416943L6.18858483893706,-47.34263100289191L15.450359589162117,-49.97010563897353z" style="fill:rgb(255,187,187); fill-opacity: 0.4"></path><path d="M6.18858556728788,-53.70257473942717L15.450360317512937,-49.97010634644765M9.00390045894836,-42.630672231643544L15.450360317512937,-49.97010634644765M9.00390045894836,-48.99061526070469L15.450360317512937,-49.97010634644765" style="fill:none;stroke:rgb(0,0,0);stroke-width:1;stroke-linecap:round"></path><path d="M9.003899730597537,-42.63067152416943L6.18858483893706,-47.34263100289191L6.18858483893706,-53.70257403195305z" style="fill:rgb(153,221,255); fill-opacity: 0.4"></path><path d="M6.18858483893706,-53.70257403195305L6.18858483893706,-47.34263100289191L9.003899730597537,-42.63067152416943z" style="fill:rgb(255,187,187); fill-opacity: 0.4"></path><path d="M8.542413642105931,-76.95905088591104L8.542413642105936,4.448219886071565L44.578444255360075,-16.645969558263257z" style="fill:rgb(238,238,238); fill-opacity: 0.24"></path><path d="M6.188584838937056,-53.70257403195305L-58.671222578000794,-38.80929621280645M6.188584838937056,-53.70257403195305L9.00389973059754,-48.99061455323057M6.18858556728788,-53.70257473942717L9.00390045894836,-48.99061526070469M91.73074678729856,-48.651444431229834L91.73074678729856,-42.29150140216869M91.73074678729856,-42.29150140216869L94.5460617684555,-37.57954177365704M91.73074678729856,-42.29150140216869L100.99252162702007,-44.91897588846114M91.73074421402013,-48.65144410639284L91.73074421402013,-42.291501077331695M91.73074421402013,-42.291501077331695L26.87093679708227,-27.398223258185087M91.73074421402013,-42.291501077331695L94.54605910568061,-37.57954159860921M-55.85590768634031,-27.73739370502282L9.00389973059754,-42.63067152416943M9.00389973059754,-48.99061455323057L9.00389973059754,-42.63067152416943M9.00390045894836,-42.630672231643544L9.00390045894836,-48.99061526070469" style="fill:none;stroke:rgb(0,0,0);stroke-width:1;stroke-linecap:round"></path><path d="M6.18858483893706,-53.70257403195305L9.003899730597537,-48.99061455323057L15.450359589162117,-49.97010563897353zM9.003899730597537,-48.99061455323057L9.003899730597537,-42.63067152416943L15.450359589162117,-49.97010563897353z" style="fill:rgb(255,187,187); fill-opacity: 0.4"></path><path d="M9.003899730597537,-48.99061455323057L9.003899730597537,-42.63067152416943L6.18858483893706,-53.70257403195305z" style="fill:rgb(153,221,255); fill-opacity: 0.4"></path><path d="M6.18858483893706,-53.70257403195305L9.003899730597537,-42.63067152416943L9.003899730597537,-48.99061455323057zM91.73074421402013,-42.2915010773317L91.73074421402013,-48.651444106392844L100.99251896424519,-44.91897571341331z" style="fill:rgb(255,187,187); fill-opacity: 0.4"></path><path d="M8.542413642105936,4.448219886071565L44.57844425536009,64.76130121371936L44.578444255360075,-16.645969558263257z" style="fill:rgb(238,238,238); fill-opacity: 0.24"></path><path d="M94.54605910568061,-37.57954159860921L91.73074421402013,-42.2915010773317L100.99251896424519,-44.91897571341331z" style="fill:rgb(255,187,187); fill-opacity: 0.4"></path><path d="M91.73074678729856,-48.651444431229834L100.99252162702007,-44.91897588846114M94.5460617684555,-37.57954177365704L100.99252162702007,-44.91897588846114M94.5460617684555,-43.93948480271819L100.99252162702007,-44.91897588846114" style="fill:none;stroke:rgb(0,0,0);stroke-width:1;stroke-linecap:round"></path><path d="M94.54605910568061,-37.57954159860921L91.73074421402013,-42.2915010773317L91.73074421402013,-48.651444106392844z" style="fill:rgb(153,221,255); fill-opacity: 0.4"></path><path d="M91.73074421402013,-48.651444106392844L91.73074421402013,-42.2915010773317L94.54605910568061,-37.57954159860921z" style="fill:rgb(255,187,187); fill-opacity: 0.4"></path><path d="M6.18858483893706,-53.70257403195305L6.18858483893706,-47.34263100289191L-58.671222578000794,-38.80929621280645zM9.003899730597537,-42.63067152416943L-55.85590768634032,-27.73739370502283L6.18858483893706,-47.34263100289191z" style="fill:rgb(153,221,255); fill-opacity: 0.4"></path><path d="M91.73074678729856,-48.651444431229834L94.5460617684555,-43.93948480271819M91.73074421402013,-48.65144410639284L26.87093679708227,-33.758166287246226M91.73074421402013,-48.65144410639284L94.54605910568061,-43.93948462767035M-55.85590768634031,-34.09733673408397L9.00389973059754,-48.99061455323057" style="fill:none;stroke:rgb(0,0,0);stroke-width:1;stroke-linecap:round"></path><path d="M109.43825167229792,-31.53924737740986L109.43825167229795,49.86802339457275L73.40222105904378,-91.85232870505766z" style="fill:rgb(238,238,238); fill-opacity: 0.24"></path><path d="M94.5460617684555,-37.57954177365704L94.5460617684555,-43.93948480271819M29.68625168874275,-22.686263779462603L94.54605910568061,-37.57954159860921M94.54605910568061,-43.93948462767035L94.54605910568061,-37.57954159860921" style="fill:none;stroke:rgb(0,0,0);stroke-width:1;stroke-linecap:round"></path><path d="M91.73074421402013,-48.651444106392844L94.54605910568061,-43.93948462767036L100.99251896424519,-44.91897571341331zM94.54605910568061,-43.93948462767036L94.54605910568061,-37.57954159860921L100.99251896424519,-44.91897571341331z" style="fill:rgb(255,187,187); fill-opacity: 0.4"></path><path d="M44.578444255360075,-16.645969558263257L44.57844425536008,64.76130121371935" style="fill:none;stroke:rgb(0,0,0);stroke-width:1;stroke-linecap:round"></path><path d="M208.02430900465248,102.22795590341678L240.45421271312145,94.78131699384349L240.4542127131214,-68.03322455012174z" style="fill:rgb(238,238,238); fill-opacity: 0.24"></path><path d="M94.54605910568061,-43.93948462767036L94.54605910568061,-37.57954159860921L91.73074421402013,-48.651444106392844z" style="fill:rgb(153,221,255); fill-opacity: 0.4"></path><path d="M91.73074421402013,-48.651444106392844L94.54605910568061,-37.57954159860921L94.54605910568061,-43.93948462767036z" style="fill:rgb(255,187,187); fill-opacity: 0.4"></path><path d="M9.003899730597537,-48.99061455323057L6.18858483893706,-53.70257403195305L-58.671222578000794,-38.80929621280645z" style="fill:rgb(153,221,255); fill-opacity: 0.4"></path><path d="M109.43825167229792,-31.53924737740986L73.40222105904378,-91.85232870505766L8.542413642105931,-76.95905088591104z" style="fill:rgb(238,238,238); fill-opacity: 0.24"></path><path d="M-55.85590768634032,-27.73739370502283L9.003899730597537,-42.63067152416943L9.003899730597537,-48.99061455323057zM6.18858483893706,-47.34263100289191L-58.671222578000794,-32.44935318374531L-58.671222578000794,-38.80929621280645zM-55.85590768634032,-27.73739370502283L-58.671222578000794,-32.44935318374531L6.18858483893706,-47.34263100289191z" style="fill:rgb(153,221,255); fill-opacity: 0.4"></path><path d="M-28.1354804659726,81.45806189377825L36.72432695096526,66.56478407463165M36.724326950965256,-14.84248669735097L36.72432695096526,66.56478407463165" style="fill:none;stroke:rgb(0,0,0);stroke-width:1;stroke-linecap:round"></path><path d="M91.73074421402013,-48.651444106392844L91.73074421402013,-42.2915010773317L26.87093679708228,-33.75816628724623zM94.54605910568061,-37.57954159860921L29.686251688742757,-22.686263779462607L91.73074421402013,-42.2915010773317z" style="fill:rgb(153,221,255); fill-opacity: 0.4"></path><path d="M29.68625168874275,-29.04620680852375L94.54605910568061,-43.93948462767035M-166.36369531636655,-261.78921372389993L-182.57864717060102,-258.0658942691132M-166.36369531636655,-261.78921372389993L-22.21957286334995,-20.536888413308723M-90.04364369024864,-129.31898339475507L-122.47354739871756,-121.87234448518176M-90.04364369024864,-129.31898339475507L-17.97158246374035,-8.692820739459487M-58.671222578000794,-38.80929621280645L-58.671222578000794,-32.44935318374531M-58.671222578000794,-32.44935318374531L-55.85590768634031,-27.73739370502282" style="fill:none;stroke:rgb(0,0,0);stroke-width:1;stroke-linecap:round"></path><path d="M94.54605910568061,-43.93948462767036L91.73074421402013,-48.651444106392844L26.87093679708228,-33.75816628724623zM29.686251688742757,-22.686263779462607L94.54605910568061,-37.57954159860921L94.54605910568061,-43.93948462767036zM91.73074421402013,-42.2915010773317L26.87093679708228,-27.398223258185087L26.87093679708228,-33.75816628724623z" style="fill:rgb(153,221,255); fill-opacity: 0.4"></path><path d="M-55.996760542135775,9.85499865284523L-55.996760542135775,16.21494168190637M-55.996760542135775,16.21494168190637L-88.42666425060472,23.661580591479677M-55.996760542135775,16.21494168190637L-53.181445650475304,20.92690116062886M-55.996761750907375,9.854999066585238L-55.996761750907375,16.214942247279236M-55.996761750907375,16.214942247279236L-53.18144694874334,20.926901576212565M-55.996761750907375,16.214942247279236L-46.44424207571351,12.092676800637177" style="fill:none;stroke:rgb(0,0,0);stroke-width:1;stroke-linecap:round"></path><path d="M29.686251688742757,-22.686263779462607L26.87093679708228,-27.398223258185087L91.73074421402013,-42.2915010773317zM-55.85590768634032,-34.09733673408397L9.003899730597537,-48.99061455323057L-58.671222578000794,-38.80929621280645z" style="fill:rgb(153,221,255); fill-opacity: 0.4"></path><path d="M44.57844425536009,64.76130121371936L109.43825167229795,49.86802339457275L109.43825167229792,-31.53924737740986z" style="fill:rgb(238,238,238); fill-opacity: 0.24"></path><path d="M-55.85590768634032,-34.09733673408397L-55.85590768634032,-27.73739370502283L9.003899730597537,-48.99061455323057z" style="fill:rgb(153,221,255); fill-opacity: 0.4"></path><path d="M-64.17151107922675,-60.26229020585215L-28.1354804659726,0.05079112179563658M-182.57864717060102,-258.0658942691132L-38.43452471758441,-16.81356895852207" style="fill:none;stroke:rgb(0,0,0);stroke-width:1;stroke-linecap:round"></path><path d="M309.1735056575669,-96.63222977051092L165.02938320455033,-337.88455508110206L164.2693073363831,-337.710024481659z" style="fill:rgb(238,238,238); fill-opacity: 0.24"></path><path d="M-55.99676054213578,16.21494168190637L-55.99676054213578,9.85499865284523L-46.44424078225519,12.092676444893902z" style="fill:rgb(255,187,187); fill-opacity: 0.4"></path><path d="M-58.671222578000794,-38.80929621280645L-55.85590768634031,-34.09733673408397" style="fill:none;stroke:rgb(0,0,0);stroke-width:1;stroke-linecap:round"></path><path d="M-53.181445650475304,20.92690116062886L-55.99676054213578,16.21494168190637L-55.99676054213578,9.85499865284523z" style="fill:rgb(153,221,255); fill-opacity: 0.4"></path><path d="M-55.99676054213578,9.85499865284523L-55.99676054213578,16.21494168190637L-53.181445650475304,20.92690116062886zM-53.181445650475304,20.92690116062886L-55.99676054213578,16.21494168190637L-46.44424078225519,12.092676444893902z" style="fill:rgb(255,187,187); fill-opacity: 0.4"></path><path d="M-58.671222578000794,-38.80929621280645L-58.671222578000794,-32.44935318374531L-55.85590768634032,-34.09733673408397z" style="fill:rgb(153,221,255); fill-opacity: 0.4"></path><path d="M117.29236897669274,-33.34273023832214L182.1521763936306,-48.236008057468744L81.2563383634386,-93.65581156596994z" style="fill:rgb(238,238,238); fill-opacity: 0.24"></path><path d="M-58.671222578000794,-32.44935318374531L-55.85590768634032,-27.73739370502283L-55.85590768634032,-34.09733673408397z" style="fill:rgb(153,221,255); fill-opacity: 0.4"></path><path d="M26.87093679708227,-33.758166287246226L26.87093679708227,-27.398223258185087M26.87093679708227,-27.398223258185087L29.68625168874275,-22.686263779462603M-55.85590768634031,-34.09733673408397L-55.85590768634031,-27.73739370502282M-190.43276447499582,-256.262411408201L-191.19284034316303,-256.0878808087578M-190.43276447499582,-256.262411408201L-46.288642021979236,-15.010086097609781M-191.19284034316303,-256.0878808087578L-47.04871789014646,-14.835555498166654M-55.996760542135775,9.85499865284523L-88.42666425060472,17.30163756241853M-55.996760542135775,9.85499865284523L-53.181445650475304,14.566958131567711M-55.996761750907375,9.854999066585238L-53.18144694874334,14.566958395518563M-55.996761750907375,9.854999066585238L-46.44424207571351,12.092676800637177M-53.18144694874334,20.926901576212565L-46.44424207571351,12.092676800637177M-53.18144694874334,14.566958395518563L-46.44424207571351,12.092676800637177" style="fill:none;stroke:rgb(0,0,0);stroke-width:1;stroke-linecap:round"></path><path d="M-64.17151107922675,-60.26229020585215L-64.17151107922675,21.144980566130457L-28.13548046597259,0.050791121795637044z" style="fill:rgb(238,238,238); fill-opacity: 0.24"></path><path d="M-85.61134935894424,28.373540070202157L-53.181445650475304,20.92690116062886M-53.181445650475304,14.566958131567711L-53.181445650475304,20.92690116062886M-53.18144694874334,20.926901576212565L-53.18144694874334,14.566958395518563" style="fill:none;stroke:rgb(0,0,0);stroke-width:1;stroke-linecap:round"></path><path d="M-55.99676054213578,9.85499865284523L-55.99676054213578,16.21494168190637L-88.42666425060472,17.30163756241853zM29.686251688742757,-29.04620680852375L94.54605910568061,-43.93948462767036L26.87093679708228,-33.75816628724623z" style="fill:rgb(153,221,255); fill-opacity: 0.4"></path><path d="M300.55931248500485,-94.6542163101555L156.41519003198826,-335.90654162074674L140.20023817775382,-332.18322216596005z" style="fill:rgb(238,238,238); fill-opacity: 0.24"></path><path d="M-53.181445650475304,20.92690116062886L-85.61134935894422,28.37354007020216L-55.99676054213578,16.21494168190637z" style="fill:rgb(153,221,255); fill-opacity: 0.4"></path><path d="M-55.99676054213578,9.85499865284523L-53.181445650475304,14.566958131567715L-46.44424078225519,12.092676444893902z" style="fill:rgb(255,187,187); fill-opacity: 0.4"></path><path d="M-122.47354739871756,-121.87234448518176L-50.40148617220928,-1.2461818298861866" style="fill:none;stroke:rgb(0,0,0);stroke-width:1;stroke-linecap:round"></path><path d="M-53.181445650475304,14.566958131567715L-53.181445650475304,20.92690116062886L-55.99676054213578,9.85499865284523z" style="fill:rgb(153,221,255); fill-opacity: 0.4"></path><path d="M-55.99676054213578,9.85499865284523L-53.181445650475304,20.92690116062886L-53.181445650475304,14.566958131567715z" style="fill:rgb(255,187,187); fill-opacity: 0.4"></path><path d="M29.686251688742757,-29.04620680852375L29.686251688742757,-22.686263779462607L94.54605910568061,-43.93948462767036z" style="fill:rgb(153,221,255); fill-opacity: 0.4"></path><path d="M-53.181445650475304,14.566958131567715L-53.181445650475304,20.92690116062886L-46.44424078225519,12.092676444893902z" style="fill:rgb(255,187,187); fill-opacity: 0.4"></path><path d="M117.29236897669274,-33.34273023832214L117.29236897669276,48.06454053366047L182.1521763936306,-48.236008057468744z" style="fill:rgb(238,238,238); fill-opacity: 0.24"></path><path d="M-55.99676054213578,16.21494168190637L-88.42666425060472,23.661580591479677L-88.42666425060472,17.30163756241853zM-85.61134935894422,28.37354007020216L-88.42666425060472,23.661580591479677L-55.99676054213578,16.21494168190637z" style="fill:rgb(153,221,255); fill-opacity: 0.4"></path><path d="M26.87093679708227,-33.758166287246226L29.68625168874275,-29.04620680852375M-88.42666425060472,17.30163756241853L-88.42666425060472,23.661580591479677M-88.42666425060472,23.661580591479677L-85.61134935894424,28.373540070202157" style="fill:none;stroke:rgb(0,0,0);stroke-width:1;stroke-linecap:round"></path><path d="M-64.17151107922675,21.144980566130457L-28.13548046597259,81.45806189377825L-28.13548046597259,0.050791121795637044z" style="fill:rgb(238,238,238); fill-opacity: 0.24"></path><path d="M26.87093679708228,-33.75816628724623L26.87093679708228,-27.398223258185087L29.686251688742757,-29.04620680852375zM26.87093679708228,-27.398223258185087L29.686251688742757,-22.686263779462607L29.686251688742757,-29.04620680852375zM-53.181445650475304,14.566958131567715L-55.99676054213578,9.85499865284523L-88.42666425060472,17.30163756241853z" style="fill:rgb(153,221,255); fill-opacity: 0.4"></path><path d="M29.68625168874275,-29.04620680852375L29.68625168874275,-22.686263779462603" style="fill:none;stroke:rgb(0,0,0);stroke-width:1;stroke-linecap:round"></path><path d="M-85.61134935894422,28.37354007020216L-53.181445650475304,20.92690116062886L-53.181445650475304,14.566958131567715z" style="fill:rgb(153,221,255); fill-opacity: 0.4"></path><path d="M-85.61134935894424,22.01359704114102L-53.181445650475304,14.566958131567711" style="fill:none;stroke:rgb(0,0,0);stroke-width:1;stroke-linecap:round"></path><path d="M36.72432695096526,-14.84248669735097L36.72432695096526,66.56478407463165L0.6882963377111091,-75.15556802499876z" style="fill:rgb(238,238,238); fill-opacity: 0.24"></path><path d="M-28.1354804659726,0.05079112179563658L-28.1354804659726,81.45806189377825" style="fill:none;stroke:rgb(0,0,0);stroke-width:1;stroke-linecap:round"></path><path d="M36.72432695096526,-14.84248669735097L0.6882963377111091,-75.15556802499876L-64.17151107922675,-60.26229020585215z" style="fill:rgb(238,238,238); fill-opacity: 0.24"></path><path d="M-88.42666425060472,17.30163756241853L-85.61134935894424,22.01359704114102" style="fill:none;stroke:rgb(0,0,0);stroke-width:1;stroke-linecap:round"></path><path d="M-88.42666425060472,17.30163756241853L-88.42666425060472,23.661580591479677L-85.61134935894422,22.01359704114102zM-88.42666425060472,23.661580591479677L-85.61134935894422,28.37354007020216L-85.61134935894422,22.01359704114102z" style="fill:rgb(153,221,255); fill-opacity: 0.4"></path><path d="M-122.47354739871756,-121.87234448518176L-122.47354739871754,40.94219705878346L-50.40148617220928,-1.2461818298861862z" style="fill:rgb(238,238,238); fill-opacity: 0.24"></path><path d="M-85.61134935894422,22.01359704114102L-53.181445650475304,14.566958131567715L-88.42666425060472,17.30163756241853z" style="fill:rgb(153,221,255); fill-opacity: 0.4"></path><path d="M-85.61134935894424,22.01359704114102L-85.61134935894424,28.373540070202157" style="fill:none;stroke:rgb(0,0,0);stroke-width:1;stroke-linecap:round"></path><path d="M-85.61134935894422,22.01359704114102L-85.61134935894422,28.37354007020216L-53.181445650475304,14.566958131567715z" style="fill:rgb(153,221,255); fill-opacity: 0.4"></path><path d="M117.29236897669274,-33.34273023832214L182.1521763936306,-48.23600805746875M-166.2178359293537,-182.6009627722566L-166.2178359293537,-167.76109570444726M-166.2178359293537,-167.76109570444726L-166.97791179752093,-167.58656510500413M-166.2178359293537,-167.76109570444726L-159.64876784881258,-156.76652358742814M-166.21783195721275,-182.60096365239966L-166.21783195721275,-167.7610965845903M-166.21783195721275,-167.7610965845903L-159.64876387667164,-156.7665244675712M-166.21783195721275,-167.7610965845903L-155.0791806125474,-171.4872269208977M-166.97791179752093,-182.42643217281346L-166.97791179752093,-167.58656510500413M-166.97791179752093,-167.58656510500413L-160.40884371697982,-156.591992987985" style="fill:none;stroke:rgb(0,0,0);stroke-width:1;stroke-linecap:round"></path><path d="M-182.57864717060102,-258.0658942691132L-182.57864717060096,67.56318881881721L-38.43452471758442,-16.81356895852207zM309.1735056575669,-96.63222977051092L309.1735056575669,228.99685331741955L165.02938320455033,-337.88455508110206zM-191.19284034316308,-256.0878808087578L-191.19284034316303,69.54120227917262L-47.048717890146484,-14.835555498166658zM300.55931248500485,-94.6542163101555L300.55931248500485,230.9748667777749L156.41519003198826,-335.90654162074674z" style="fill:rgb(238,238,238); fill-opacity: 0.24"></path><path d="M-50.401486172209275,161.56835971407907L-17.97158246374034,154.12172080450574M-17.97158246374035,-8.692820739459487L-17.97158246374034,154.12172080450574" style="fill:none;stroke:rgb(0,0,0);stroke-width:1;stroke-linecap:round"></path><path d="M-166.2178359293537,-167.76109570444726L-166.97791179752093,-167.5865651050041L-166.97791179752093,-182.42643217281346z" style="fill:rgb(153,221,255); fill-opacity: 0.4"></path><path d="M-28.13548046597259,81.45806189377825L36.72432695096526,66.56478407463165L36.72432695096526,-14.84248669735097z" style="fill:rgb(238,238,238); fill-opacity: 0.24"></path><path d="M-160.40884371697982,-156.59199298798498L-166.97791179752093,-167.5865651050041L-166.2178359293537,-167.76109570444726z" style="fill:rgb(153,221,255); fill-opacity: 0.4"></path><path d="M-122.47354739871754,40.94219705878346L-50.40148617220926,161.56835971407907L-50.40148617220928,-1.2461818298861862zM44.578444255360075,-16.645969558263257L109.43825167229792,-31.53924737740986L8.542413642105931,-76.95905088591104z" style="fill:rgb(238,238,238); fill-opacity: 0.24"></path><path d="M-166.2178359293537,-167.76109570444726L-166.2178359293537,-182.6009627722566L-155.07918458468833,-171.48722604075465z" style="fill:rgb(255,187,187); fill-opacity: 0.4"></path><path d="M-166.2178359293537,-182.6009627722566L-166.2178359293537,-167.76109570444726L-166.97791179752093,-182.42643217281346z" style="fill:rgb(153,221,255); fill-opacity: 0.4"></path><path d="M-159.64876784881258,-156.7665235874281L-166.2178359293537,-167.76109570444726L-155.07918458468833,-171.48722604075465z" style="fill:rgb(255,187,187); fill-opacity: 0.4"></path><path d="M-159.64876784881258,-156.7665235874281L-166.2178359293537,-167.76109570444726L-166.2178359293537,-182.6009627722566z" style="fill:rgb(153,221,255); fill-opacity: 0.4"></path><path d="M-166.2178359293537,-182.6009627722566L-166.2178359293537,-167.76109570444726L-159.64876784881258,-156.7665235874281z" style="fill:rgb(255,187,187); fill-opacity: 0.4"></path><path d="M-159.64876784881258,-156.7665235874281L-160.40884371697982,-156.59199298798498L-166.2178359293537,-167.76109570444726z" style="fill:rgb(153,221,255); fill-opacity: 0.4"></path><path d="M-166.21783195721275,-182.60096365239966L-155.0791806125474,-171.4872269208977M-159.64876387667164,-156.7665244675712L-155.0791806125474,-171.4872269208977M-159.64876387667164,-171.6063915353805L-155.0791806125474,-171.4872269208977" style="fill:none;stroke:rgb(0,0,0);stroke-width:1;stroke-linecap:round"></path><path d="M44.578444255360075,-16.645969558263257L44.57844425536009,64.76130121371936L109.43825167229792,-31.53924737740986z" style="fill:rgb(238,238,238); fill-opacity: 0.24"></path><path d="M-166.2178359293537,-182.6009627722566L-166.97791179752093,-182.42643217281346M-166.2178359293537,-182.6009627722566L-159.64876784881258,-171.60639065523745M-166.21783195721275,-182.60096365239966L-159.64876387667164,-171.6063915353805M-166.97791179752093,-182.42643217281346L-160.40884371697982,-171.43186005579435" style="fill:none;stroke:rgb(0,0,0);stroke-width:1;stroke-linecap:round"></path><path d="M-166.97791179752093,-182.42643217281346L-166.97791179752093,-167.5865651050041L-160.40884371697982,-171.43186005579432z" style="fill:rgb(153,221,255); fill-opacity: 0.4"></path><path d="M208.02430900465248,-60.58658564054845L240.4542127131214,-68.03322455012174L135.9522477781442,-181.21274829584402z" style="fill:rgb(238,238,238); fill-opacity: 0.24"></path><path d="M-50.40148617220928,-1.2461818298861866L-50.401486172209275,161.56835971407907" style="fill:none;stroke:rgb(0,0,0);stroke-width:1;stroke-linecap:round"></path><path d="M-166.97791179752093,-167.5865651050041L-160.40884371697982,-156.59199298798498L-160.40884371697982,-171.43186005579432z" style="fill:rgb(153,221,255); fill-opacity: 0.4"></path><path d="M-160.40884371697982,-156.591992987985L-159.64876784881258,-156.76652358742814M-159.64876784881258,-171.60639065523745L-159.64876784881258,-156.76652358742814M-159.64876387667164,-156.7665244675712L-159.64876387667164,-171.6063915353805M-160.40884371697982,-171.43186005579435L-160.40884371697982,-156.591992987985" style="fill:none;stroke:rgb(0,0,0);stroke-width:1;stroke-linecap:round"></path><path d="M-166.2178359293537,-182.6009627722566L-159.64876784881258,-171.60639065523745L-155.07918458468833,-171.48722604075465z" style="fill:rgb(255,187,187); fill-opacity: 0.4"></path><path d="M-182.57864717060096,67.56318881881721L-38.434524717584395,308.81551412940837L-38.43452471758442,-16.81356895852207z" style="fill:rgb(238,238,238); fill-opacity: 0.24"></path><path d="M-159.64876784881258,-171.60639065523745L-166.2178359293537,-182.6009627722566L-166.97791179752093,-182.42643217281346z" style="fill:rgb(153,221,255); fill-opacity: 0.4"></path><path d="M-159.64876784881258,-171.60639065523745L-159.64876784881258,-156.7665235874281L-155.07918458468833,-171.48722604075465z" style="fill:rgb(255,187,187); fill-opacity: 0.4"></path><path d="M-159.64876784881258,-171.60639065523745L-159.64876784881258,-156.7665235874281L-166.2178359293537,-182.6009627722566z" style="fill:rgb(153,221,255); fill-opacity: 0.4"></path><path d="M-166.2178359293537,-182.6009627722566L-159.64876784881258,-156.7665235874281L-159.64876784881258,-171.60639065523745z" style="fill:rgb(255,187,187); fill-opacity: 0.4"></path><path d="M308.4134297893997,229.17138391686268L309.1735056575669,228.99685331741955L309.1735056575669,-96.63222977051092z" style="fill:rgb(238,238,238); fill-opacity: 0.24"></path><path d="M-160.40884371697982,-156.59199298798498L-159.64876784881258,-156.7665235874281L-159.64876784881258,-171.60639065523745z" style="fill:rgb(153,221,255); fill-opacity: 0.4"></path><path d="M-191.19284034316303,69.54120227917262L-47.04871789014646,310.7935275897638L-47.048717890146484,-14.835555498166658z" style="fill:rgb(238,238,238); fill-opacity: 0.24"></path><path d="M44.578444255360075,-16.645969558263257L109.43825167229792,-31.539247377409865" style="fill:none;stroke:rgb(0,0,0);stroke-width:1;stroke-linecap:round"></path><path d="M208.02430900465248,-60.58658564054845L208.02430900465248,102.22795590341678L240.4542127131214,-68.03322455012174z" style="fill:rgb(238,238,238); fill-opacity: 0.24"></path><path d="M-160.40884371697982,-171.43186005579432L-159.64876784881258,-171.60639065523745L-166.97791179752093,-182.42643217281346z" style="fill:rgb(153,221,255); fill-opacity: 0.4"></path><path d="M284.34436063077044,234.69818623256162L300.55931248500485,230.9748667777749L300.55931248500485,-94.6542163101555z" style="fill:rgb(238,238,238); fill-opacity: 0.24"></path><path d="M-160.40884371697982,-171.43186005579432L-160.40884371697982,-156.59199298798498L-159.64876784881258,-171.60639065523745z" style="fill:rgb(153,221,255); fill-opacity: 0.4"></path><path d="M-160.40884371697982,-171.43186005579435L-159.64876784881258,-171.60639065523745M-38.434524717584395,308.81551412940837L-22.219572863349928,305.0921946746217M-22.21957286334995,-20.536888413308723L-22.219572863349928,305.0921946746217" style="fill:none;stroke:rgb(0,0,0);stroke-width:1;stroke-linecap:round"></path><path d="M-28.13548046597259,0.050791121795637044L36.72432695096526,-14.84248669735097L-64.17151107922675,-60.26229020585215zM-28.13548046597259,0.050791121795637044L-28.13548046597259,81.45806189377825L36.72432695096526,-14.84248669735097z" style="fill:rgb(238,238,238); fill-opacity: 0.24"></path><path d="M-38.43452471758441,-16.81356895852207L-38.434524717584395,308.81551412940837" style="fill:none;stroke:rgb(0,0,0);stroke-width:1;stroke-linecap:round"></path><path d="M-17.971582463740354,-8.692820739459489L-90.04364369024864,-129.31898339475507L-122.47354739871756,-121.87234448518176z" style="fill:rgb(238,238,238); fill-opacity: 0.24"></path><path d="M-47.04871789014645,310.7935275897638L-46.288642021979214,310.6189969903207M-46.288642021979236,-15.010086097609781L-46.288642021979214,310.6189969903207M-47.04871789014646,-14.835555498166654L-47.04871789014645,310.7935275897638" style="fill:none;stroke:rgb(0,0,0);stroke-width:1;stroke-linecap:round"></path><path d="M-17.971582463740354,-8.692820739459489L-17.971582463740344,154.12172080450574L-90.04364369024864,-129.31898339475507z" style="fill:rgb(238,238,238); fill-opacity: 0.24"></path><path d="M-28.1354804659726,0.05079112179563658L36.724326950965256,-14.84248669735097" style="fill:none;stroke:rgb(0,0,0);stroke-width:1;stroke-linecap:round"></path><path d="M-50.40148617220926,161.56835971407907L-17.971582463740344,154.12172080450574L-17.971582463740354,-8.692820739459489z" style="fill:rgb(238,238,238); fill-opacity: 0.24"></path><path d="M208.02430900465248,-60.58658564054845L240.45421271312145,-68.03322455012174" style="fill:none;stroke:rgb(0,0,0);stroke-width:1;stroke-linecap:round"></path><path d="M-22.219572863349956,-20.536888413308723L-166.36369531636655,-261.7892137238999L-182.57864717060102,-258.0658942691132zM308.4134297893997,-96.45769917106779L309.1735056575669,-96.63222977051092L164.2693073363831,-337.710024481659zM-50.40148617220928,-1.2461818298861862L-17.971582463740354,-8.692820739459489L-122.47354739871756,-121.87234448518176zM-46.288642021979236,-15.010086097609785L-190.43276447499582,-256.26241140820093L-191.19284034316308,-256.0878808087578zM284.34436063077044,-90.93089685536886L300.55931248500485,-94.6542163101555L140.20023817775382,-332.18322216596005zM-50.40148617220928,-1.2461818298861862L-50.40148617220926,161.56835971407907L-17.971582463740354,-8.692820739459489zM-22.219572863349956,-20.536888413308723L-22.21957286334994,305.09219467462174L-166.36369531636655,-261.7892137238999zM308.4134297893997,-96.45769917106779L308.4134297893997,229.17138391686268L309.1735056575669,-96.63222977051092zM-46.288642021979236,-15.010086097609785L-46.288642021979214,310.61899699032074L-190.43276447499582,-256.26241140820093zM284.34436063077044,-90.93089685536886L284.34436063077044,234.69818623256162L300.55931248500485,-94.6542163101555zM-38.434524717584395,308.81551412940837L-22.21957286334994,305.09219467462174L-22.219572863349956,-20.536888413308723zM-47.04871789014646,310.7935275897638L-46.288642021979214,310.61899699032074L-46.288642021979236,-15.010086097609785z" style="fill:rgb(238,238,238); fill-opacity: 0.24"></path><path d="M-50.40148617220928,-1.2461818298861866L-17.97158246374035,-8.692820739459487" style="fill:none;stroke:rgb(0,0,0);stroke-width:1;stroke-linecap:round"></path><path d="M-38.43452471758442,-16.81356895852207L-22.219572863349956,-20.536888413308723L-182.57864717060102,-258.0658942691132z" style="fill:rgb(238,238,238); fill-opacity: 0.24"></path><path d="M308.4134297893997,-96.45769917106777L309.1735056575669,-96.63222977051092" style="fill:none;stroke:rgb(0,0,0);stroke-width:1;stroke-linecap:round"></path><path d="M-47.048717890146484,-14.835555498166658L-46.288642021979236,-15.010086097609785L-191.19284034316308,-256.0878808087578z" style="fill:rgb(238,238,238); fill-opacity: 0.24"></path><path d="M284.34436063077044,-90.93089685536886L300.55931248500485,-94.6542163101555" style="fill:none;stroke:rgb(0,0,0);stroke-width:1;stroke-linecap:round"></path><path d="M-38.43452471758442,-16.81356895852207L-38.434524717584395,308.81551412940837L-22.219572863349956,-20.536888413308723zM-47.048717890146484,-14.835555498166658L-47.04871789014646,310.7935275897638L-46.288642021979236,-15.010086097609785z" style="fill:rgb(238,238,238); fill-opacity: 0.24"></path><path d="M-38.43452471758441,-16.81356895852207L-22.21957286334995,-20.536888413308723M-47.04871789014646,-14.835555498166654L-46.288642021979236,-15.010086097609781" style="fill:none;stroke:rgb(0,0,0);stroke-width:1;stroke-linecap:round"></path></svg>